# xmcd CD database file
#
# Track frame offsets:
#	150
#	17477
#	33200
#	52760
#	72520
#	90920
#	109475
#	121007
#	141122
#	157227
#	186350
#	222565
#
# Disc length: 3294 seconds
#
# Revision: 1
# Processed by: cddbd v1.5.2PL0 Copyright (c) Steve Scherf et al.
# Submitted via: CDex 1.51
#
DISCID=a40cdc0c
DTITLE=Jetsun - The Composer
DYEAR=1997
DGENRE=New Age
TTITLE0=The Wedding Song
TTITLE1=Rising Sun
TTITLE2=Swimming With The Dauphins
TTITLE3=The Wall
TTITLE4=Suite Imagination
TTITLE5=The Spiral
TTITLE6=The Child Within
TTITLE7=The Gift
TTITLE8=River Of Life
TTITLE9=Breathing
TTITLE10=Zinphony
TTITLE11=Beautiful
EXTD=YEAR: 1997
EXTT0=
EXTT1=
EXTT2=
EXTT3=
EXTT4=
EXTT5=
EXTT6=
EXTT7=
EXTT8=
EXTT9=
EXTT10=
EXTT11=
PLAYORDER=
